<svg xmlns="http://www.w3.org/2000/svg" width="1024" height="1024">
    <style>
        @media (prefers-color-scheme: dark) {
            .bg { fill: #111 }
        }
    </style>
    <path class="bg" fill="#fff" d="M0 0h1024v1024H0z"/>
    <path fill="#D73138"
          d="M653.6 629.2h146c-3 47.8-16.1 90.3-39.6 127.4a235.8 235.8 0 0 1-97.1 87c-41.4 20.7-91.2 31.2-149.5 31.2A306 306 0 0 1 391 851.3c-36.1-16-67-38.7-92.8-68.3a304.5 304.5 0 0 1-58-107.5c-13.4-42-20.1-89-20.1-141V485c0-52 6.8-99.1 20.5-141.1 14-42.3 33.9-78.3 59.6-108 26-29.5 57.1-52.3 93.2-68.3 36.2-16 76.5-23.9 121.1-23.9 59.3 0 109.2 10.8 150 32.2 41 21.5 72.7 51.1 95.1 88.9a300.8 300.8 0 0 1 41 129H654.2A188.5 188.5 0 0 0 637 321a97 97 0 0 0-44.4-45.5C573 265.2 547 260 514.4 260a142 142 0 0 0-64 13.7c-18.2 9.1-33.5 23-45.8 41.5a204.8 204.8 0 0 0-27.9 70.3c-5.8 28-8.8 60.9-8.8 98.6v50.3c0 36.8 2.8 69.2 8.3 97.2a223 223 0 0 0 25.4 70.3 118.2 118.2 0 0 0 45 43 146 146 0 0 0 66.8 14.1c30.6 0 55.9-4.8 75.7-14.6 19.9-9.8 35-24.3 45.4-43.5 10.8-19.2 17.1-43 19-71.7Z"/>
</svg>